<?xml version="1.0" standalone="no"?>
<!DOCTYPE svg PUBLIC "-//W3C//DTD SVG 20010904//EN"
 "http://www.w3.org/TR/2001/REC-SVG-20010904/DTD/svg10.dtd">
<svg version="1.0" xmlns="http://www.w3.org/2000/svg"
 width="500.000000pt" height="500.000000pt" viewBox="0 0 500.000000 500.000000"
 preserveAspectRatio="xMidYMid meet">

<g transform="translate(0.000000,500.000000) scale(0.100000,-0.100000)"
fill="#000000" stroke="none">
<path d="M1400 2994 l0 -246 48 35 47 35 3 211 2 211 -50 0 -50 0 0 -246z"/>
<path d="M1130 2970 l0 -190 50 28 50 27 0 163 0 162 -50 0 -50 0 0 -190z"/>
<path d="M1000 2874 l0 -165 50 28 50 28 0 138 0 137 -50 0 -50 0 0 -166z"/>
<path d="M1266 2983 c-10 -10 -7 -141 4 -148 6 -3 10 -42 10 -86 0 -43 3 -79
7 -79 3 0 21 11 40 26 l33 25 0 132 0 133 -44 2 c-24 1 -46 -1 -50 -5z"/>
<path d="M1600 2895 c7 -9 11 -17 9 -19 -2 -2 -80 -58 -174 -126 l-170 -122
-3 96 c-1 53 -6 96 -10 96 -4 0 -85 -43 -181 -95 -152 -83 -181 -95 -223 -95
-26 0 -48 -3 -48 -6 0 -6 89 -401 96 -426 7 -22 54 -24 93 -4 28 15 51 56 75
136 8 29 15 40 19 30 4 -8 16 -41 27 -72 30 -81 47 -99 102 -105 l46 -5 21 93
c12 52 36 155 52 229 l31 135 111 80 c171 124 165 121 181 99 13 -17 15 -16
29 17 34 82 35 79 -34 79 -54 0 -60 -2 -49 -15z m-390 -261 l0 -106 26 17 c25
16 26 16 21 -2 -3 -10 -18 -76 -33 -146 -17 -78 -31 -122 -36 -114 -4 8 -28
72 -53 143 -25 71 -49 132 -53 136 -5 5 -30 -54 -56 -129 -27 -76 -52 -144
-55 -151 -6 -11 -72 253 -71 283 0 9 283 171 303 174 4 1 7 -47 7 -105z"/>
<path d="M518 2629 c-54 -16 -98 -69 -98 -120 0 -82 33 -114 150 -144 69 -18
100 -38 100 -65 0 -41 -80 -71 -135 -50 -17 6 -41 22 -55 35 l-25 24 -29 -26
-30 -25 36 -34 c45 -41 106 -58 176 -50 104 12 147 51 147 133 0 48 -3 58 -31
82 -19 18 -56 34 -100 45 -84 21 -114 39 -114 69 0 63 83 85 147 39 32 -23 33
-23 58 -5 29 21 31 35 8 55 -45 39 -137 56 -205 37z"/>
<path d="M2478 2629 c-54 -16 -98 -69 -98 -120 0 -82 33 -114 150 -144 69 -18
100 -38 100 -65 0 -41 -80 -71 -135 -50 -17 6 -41 22 -55 35 l-25 24 -29 -26
-30 -25 36 -34 c45 -41 106 -58 176 -50 104 12 147 51 147 133 0 48 -3 58 -31
82 -19 18 -56 34 -100 45 -84 21 -114 39 -114 69 0 63 83 85 147 39 32 -23 33
-23 58 -5 29 21 31 35 8 55 -45 39 -137 56 -205 37z"/>
<path d="M3285 2631 c-98 -25 -115 -59 -115 -226 0 -147 11 -179 72 -211 49
-26 162 -25 212 2 63 33 76 68 76 209 0 139 -13 177 -73 208 -40 21 -127 30
-172 18z m101 -71 c47 -18 53 -36 53 -155 0 -121 -6 -138 -57 -156 -38 -13
-97 3 -112 31 -11 21 -14 218 -4 245 7 17 56 44 81 45 6 0 24 -5 39 -10z"/>
<path d="M3705 2622 c-35 -12 -56 -27 -72 -51 -21 -31 -23 -45 -23 -166 0
-121 2 -135 23 -166 45 -67 193 -88 273 -38 54 33 60 53 23 80 l-30 21 -15
-20 c-19 -27 -77 -46 -119 -38 -55 11 -65 35 -65 162 0 139 10 157 88 158 42
1 55 -4 79 -27 l29 -27 32 24 33 24 -30 30 c-30 30 -95 52 -148 52 -15 -1 -50
-9 -78 -18z"/>
<path d="M1430 2405 l0 -225 45 0 45 0 0 225 0 225 -45 0 -45 0 0 -225z"/>
<path d="M1689 2614 c-63 -26 -69 -49 -69 -253 l0 -181 45 0 45 0 0 90 0 90
95 0 95 0 0 35 0 35 -95 0 -95 0 0 48 c0 72 16 82 128 82 l92 0 0 35 0 35
-102 -1 c-67 0 -115 -5 -139 -15z"/>
<path d="M1960 2595 l0 -35 70 0 70 0 0 -190 0 -190 45 0 45 0 0 190 0 190 65
0 65 0 0 35 0 35 -180 0 -180 0 0 -35z"/>
<path d="M2760 2595 l0 -35 65 0 65 0 0 -190 0 -190 45 0 45 0 0 190 0 190 70
0 70 0 0 35 0 35 -180 0 -180 0 0 -35z"/>
<path d="M4030 2405 l0 -225 50 0 50 0 0 68 c1 61 4 70 33 105 31 36 35 38 60
26 25 -11 44 -50 90 -181 5 -14 18 -18 52 -18 25 0 45 1 45 3 0 9 -63 173 -75
197 -8 16 -29 40 -47 54 l-33 25 50 53 c28 29 63 68 80 86 l29 32 -55 0 -54
-1 -87 -100 -88 -100 0 101 0 100 -50 0 -50 0 0 -225z"/>
</g>
</svg>
